<svg width="146" height="142" viewBox="0 0 146 142" fill="none" xmlns="http://www.w3.org/2000/svg">
<g id="Generic avatar">
<rect x="0.5" y="0.5" width="145" height="140.663" rx="70.3317" fill="white"/>
<rect x="0.5" y="0.5" width="145" height="140.663" rx="70.3317" stroke="#3272F2"/>
<g id="Avatar Placeholder">
<path fill-rule="evenodd" clip-rule="evenodd" d="M94.9009 56.6655C94.9009 68.4013 85.0959 77.915 73.0009 77.915C60.9059 77.915 51.1009 68.4013 51.1009 56.6655C51.1009 44.9297 60.9059 35.416 73.0009 35.416C85.0959 35.416 94.9009 44.9297 94.9009 56.6655ZM87.6009 56.6655C87.6009 64.4894 81.0642 70.8319 73.0009 70.8319C64.9375 70.8319 58.4009 64.4894 58.4009 56.6655C58.4009 48.8417 64.9375 42.4992 73.0009 42.4992C81.0642 42.4992 87.6009 48.8417 87.6009 56.6655Z" fill="#3272F2"/>
<path d="M73.0009 88.5398C49.3694 88.5398 29.2347 102.098 21.5649 121.094C23.4334 122.894 25.4016 124.597 27.4609 126.194C33.1722 108.754 51.0889 95.6229 73.0009 95.6229C94.9129 95.6229 112.83 108.754 118.541 126.194C120.6 124.597 122.568 122.894 124.437 121.094C116.767 102.098 96.6324 88.5398 73.0009 88.5398Z" fill="#3272F2"/>
</g>
</g>
</svg>
