<svg width="37" height="37" viewBox="0 0 37 37" fill="none" xmlns="http://www.w3.org/2000/svg">
<path d="M7.70833 32.375H29.2917C30.9945 32.375 32.375 30.9945 32.375 29.2917V7.70833C32.375 6.00546 30.9945 4.625 29.2917 4.625H7.70833C6.00546 4.625 4.625 6.00546 4.625 7.70833V29.2917C4.625 30.9945 6.00546 32.375 7.70833 32.375ZM7.70833 32.375L24.6667 15.4167L32.375 23.125M15.4167 13.1042C15.4167 14.3813 14.3813 15.4167 13.1042 15.4167C11.827 15.4167 10.7917 14.3813 10.7917 13.1042C10.7917 11.827 11.827 10.7917 13.1042 10.7917C14.3813 10.7917 15.4167 11.827 15.4167 13.1042Z" stroke="#1E1E1E" stroke-width="2" stroke-linecap="round" stroke-linejoin="round"/>
</svg>
