<svg width="34" height="34" viewBox="0 0 34 34" fill="none" xmlns="http://www.w3.org/2000/svg">
<path d="M16.9999 25.3334C17.4721 25.3334 17.868 25.1737 18.1874 24.8542C18.5069 24.5348 18.6666 24.1389 18.6666 23.6667C18.6666 23.1945 18.5069 22.7987 18.1874 22.4792C17.868 22.1598 17.4721 22 16.9999 22C16.5277 22 16.1319 22.1598 15.8124 22.4792C15.493 22.7987 15.3333 23.1945 15.3333 23.6667C15.3333 24.1389 15.493 24.5348 15.8124 24.8542C16.1319 25.1737 16.5277 25.3334 16.9999 25.3334ZM15.3333 18.6667H18.6666V8.66671H15.3333V18.6667ZM16.9999 33.6667C14.6944 33.6667 12.5277 33.2292 10.4999 32.3542C8.47214 31.4792 6.70825 30.2917 5.20825 28.7917C3.70825 27.2917 2.52075 25.5278 1.64575 23.5C0.770752 21.4723 0.333252 19.3056 0.333252 17C0.333252 14.6945 0.770752 12.5278 1.64575 10.5C2.52075 8.47226 3.70825 6.70837 5.20825 5.20837C6.70825 3.70837 8.47214 2.52087 10.4999 1.64587C12.5277 0.770874 14.6944 0.333374 16.9999 0.333374C19.3055 0.333374 21.4721 0.770874 23.4999 1.64587C25.5277 2.52087 27.2916 3.70837 28.7916 5.20837C30.2916 6.70837 31.4791 8.47226 32.3541 10.5C33.2291 12.5278 33.6666 14.6945 33.6666 17C33.6666 19.3056 33.2291 21.4723 32.3541 23.5C31.4791 25.5278 30.2916 27.2917 28.7916 28.7917C27.2916 30.2917 25.5277 31.4792 23.4999 32.3542C21.4721 33.2292 19.3055 33.6667 16.9999 33.6667Z" fill="#1D1B20"/>
</svg>
